<svg xmlns="http://www.w3.org/2000/svg" id="prefix__그룹_1" width="37" height="37" data-name="그룹 1" viewBox="0 0 37 37">
    <path id="prefix__ic_pin_drop_24px" d="M22.047 9.868a7.868 7.868 0 0 0-15.735 0c0 5.9 7.868 14.424 7.868 14.424s7.867-8.523 7.867-14.424zM5 25.6v2.623h18.358V25.6z" transform="translate(4.208 3.262)" style="fill:#f7d777"/>
    <path id="prefix__ic_thumb_up_24px" d="M1 7.789h1.358V3.716H1zm7.468-3.734a.681.681 0 0 0-.679-.679H5.647l.323-1.551.01-.109a.511.511 0 0 0-.149-.36L5.471 1 3.237 3.237a.664.664 0 0 0-.2.479V7.11a.681.681 0 0 0 .679.679h3.055a.674.674 0 0 0 .629-.414l1.021-2.393a.671.671 0 0 0 .048-.248v-.648z" transform="translate(13.672 9.131)" style="fill:#fff"/>
    <path id="prefix__사각형_2" d="M0 0H37V37H0z" data-name="사각형 2" style="fill:none"/>
</svg>
