<svg xmlns="http://www.w3.org/2000/svg" width="95" height="95" viewBox="0 0 95 95">
    <defs>
        <style>
            .prefix__cls-1{fill:#95989a}
        </style>
    </defs>
    <g id="prefix__그룹_116" data-name="그룹 116" transform="translate(-127 -537)">
        <g id="prefix__그룹_114" data-name="그룹 114" transform="translate(137 547)">
            <g id="prefix__shop">
                <g id="prefix__그룹_111" data-name="그룹 111">
                    <g id="prefix__그룹_110" data-name="그룹 110">
                        <path id="prefix__패스_63" d="M73.75 67.5h-7.5V41.108a6.093 6.093 0 0 0 1.25.143A6.257 6.257 0 0 0 73.75 35a1.237 1.237 0 0 0-.03-.271l-2.5-11.25A1.25 1.25 0 0 0 70 22.5h-3.75v-3.75A1.25 1.25 0 0 0 65 17.5H55V15h2.5a1.25 1.25 0 0 0 1.25-1.25V1.25A1.25 1.25 0 0 0 57.5 0h-40a1.25 1.25 0 0 0-1.25 1.25v12.5A1.25 1.25 0 0 0 17.5 15H20v2.5H10a1.25 1.25 0 0 0-1.25 1.25v3.75H5a1.25 1.25 0 0 0-1.22.979l-2.5 11.25a1.238 1.238 0 0 0-.03.271 6.257 6.257 0 0 0 6.25 6.25 6.094 6.094 0 0 0 1.25-.143V67.5h-7.5A1.25 1.25 0 0 0 0 68.75v5A1.25 1.25 0 0 0 1.25 75h72.5A1.25 1.25 0 0 0 75 73.75v-5a1.25 1.25 0 0 0-1.25-1.25zM69 25l2.25 10.125a3.749 3.749 0 0 1-7.382.786A3.293 3.293 0 0 1 63.75 35a1.262 1.262 0 0 0-.008-.138L62.646 25zM57.5 47.5H45a1.25 1.25 0 0 0-1.25 1.25V67.5h-32.5V39.955a6.22 6.22 0 0 0 1.25-1.23 6.215 6.215 0 0 0 10 0 6.215 6.215 0 0 0 10 0 6.215 6.215 0 0 0 10 0 6.215 6.215 0 0 0 10 0 6.216 6.216 0 0 0 10 0 6.186 6.186 0 0 0 1.25 1.226V67.5h-5V48.75a1.25 1.25 0 0 0-1.25-1.25zM56.25 50v17.5h-10V50zm-42.5-14.935L14.875 25h7.485l-1.1 9.862a1.23 1.23 0 0 0-.01.138 3.373 3.373 0 0 1-.125.941 3.75 3.75 0 0 1-7.26-.03 3.246 3.246 0 0 1-.115-.846zm10 0L24.875 25h6.375v10a3.373 3.373 0 0 1-.125.941 3.75 3.75 0 0 1-7.26-.03 3.246 3.246 0 0 1-.115-.846zm10-.065V25h7.5v10a3.373 3.373 0 0 1-.125.941 3.75 3.75 0 0 1-7.26-.03A3.292 3.292 0 0 1 33.75 35zm10 0V25h6.375l1.125 10.065a3.388 3.388 0 0 1-.125.875 3.75 3.75 0 0 1-7.26-.03 3.289 3.289 0 0 1-.115-.91zm8.9-10h7.485l1.125 10.065a3.388 3.388 0 0 1-.125.875 3.75 3.75 0 0 1-7.26-.03 3.292 3.292 0 0 1-.125-.91 1.262 1.262 0 0 0-.008-.138zm-33.9-12.5v-10h37.5v10zM52.5 15v2.5h-30V15zm-41.25 5h52.5v2.5h-52.5zM7.5 38.75a3.75 3.75 0 0 1-3.75-3.625L6 25h6.351l-1.1 9.862a1.263 1.263 0 0 0 0 .138 3.391 3.391 0 0 1-.125.939A3.761 3.761 0 0 1 7.5 38.75zm65 33.75h-70V70h70z" class="prefix__cls-1" data-name="패스 63"/>
                    </g>
                </g>
                <g id="prefix__그룹_113" data-name="그룹 113" transform="translate(17.509 49.647)">
                    <g id="prefix__그룹_112" data-name="그룹 112">
                        <path id="prefix__패스_64" d="M121.408 304h-16.384a1.024 1.024 0 0 0-1.024 1.024v10.24a1.024 1.024 0 0 0 1.024 1.024h16.384a1.024 1.024 0 0 0 1.024-1.024v-10.24a1.024 1.024 0 0 0-1.024-1.024zm-1.024 10.24h-14.336v-8.192h14.336z" class="prefix__cls-1" data-name="패스 64" transform="translate(-104 -304)"/>
                    </g>
                </g>
            </g>
        </g>
        <path id="prefix__사각형_126" d="M0 0H95V95H0z" data-name="사각형 126" transform="translate(127 537)" style="fill:none"/>
    </g>
</svg>
