<svg xmlns="http://www.w3.org/2000/svg" width="24" height="21.999" viewBox="0 0 24 21.999">
  <defs>
    <style>
      .cls-1 {
        fill: #3e2723;
      }

      .cls-2 {
        fill: #ffeb3b;
      }
    </style>
  </defs>
  <g id="kakao-talk" transform="translate(0 -1)">
    <path id="패스_76" data-name="패스 76" class="cls-1" d="M12,1C5.373,1,0,5.208,0,10.4c0,3.356,2.246,6.3,5.625,7.963-1.678,5.749-2.664,6.123,4.244,1.287A15.351,15.351,0,0,0,12,19.8c6.627,0,12-4.208,12-9.4S18.627,1,12,1Z"/>
    <g id="그룹_126" data-name="그룹 126">
      <path id="패스_77" data-name="패스 77" class="cls-2" d="M10.384,8.27a.97.97,0,0,0-1.845,0c-.984,3.052-2.3,4.935-1.492,5.306,1.078.489,1.1-.611,1.359-1.1h2.111c.257.487.282,1.588,1.359,1.1C12.689,13.2,11.387,11.38,10.384,8.27ZM8.77,11.257l.692-1.951.691,1.951Z"/>
      <path id="패스_78" data-name="패스 78" class="cls-2" d="M5.365,13.68c-1.2,0-.49-1.657-.692-4.742-.429-.074-1.76.3-1.76-.673a.677.677,0,0,1,.679-.673c2.518.18,4.224-.47,4.224.673,0,.987-1.275.59-1.76.673C5.856,12.013,6.561,13.68,5.365,13.68Z"/>
      <path id="패스_79" data-name="패스 79" class="cls-2" d="M13.154,13.579c-1.159,0-.454-1.565-.663-5.3a.707.707,0,0,1,1.413,0v4.04c.669.089,2.135-.33,2.135.63,0,1.007-1.576.5-2.885.631Z"/>
      <path id="패스_80" data-name="패스 80" class="cls-2" d="M19.556,13.38l-1.624-2.137-.24.239v1.5A.69.69,0,0,1,17,13.67c-1.2,0-.482-1.732-.692-5.392A.691.691,0,0,1,17,7.59c1.045,0,.594,1.478.692,2.166,1.96-1.873,1.913-2.072,2.316-2.072a.655.655,0,0,1,.527,1.058l-1.578,1.567,1.7,2.243A.69.69,0,0,1,19.556,13.38Z"/>
    </g>
  </g>
</svg>
