<svg xmlns="http://www.w3.org/2000/svg" width="30" height="30" viewBox="0 0 30 30">
  <defs>
    <style>
      .cls-1 {
        fill: none;
      }

      .cls-2 {
        fill: #fbbd00;
      }

      .cls-3 {
        fill: #0f9d58;
      }

      .cls-4 {
        fill: #31aa52;
      }

      .cls-5 {
        fill: #3c79e6;
      }

      .cls-6 {
        fill: #cf2d48;
      }

      .cls-7 {
        fill: #eb4132;
      }
    </style>
  </defs>
  <g id="그룹_128" data-name="그룹 128" transform="translate(-74 -499)">
    <rect id="사각형_75" data-name="사각형 75" class="cls-1" width="30" height="30" transform="translate(74 499)"/>
    <g id="brands-and-logotypes" transform="translate(79 504)">
      <path id="패스_70" data-name="패스 70" class="cls-2" d="M4.693,106.3a5.269,5.269,0,0,1,.748-2.712v-3.369H2.066a9.983,9.983,0,0,0,0,12.162H5.441v-3.369A5.269,5.269,0,0,1,4.693,106.3Z" transform="translate(0 -96.296)"/>
      <path id="패스_71" data-name="패스 71" class="cls-3" d="M198.346,373.706,196,376.052l2.346,2.346a9.935,9.935,0,0,0,6.092-2.066v-3.372h-3.372A5.317,5.317,0,0,1,198.346,373.706Z" transform="translate(-188.35 -358.398)"/>
      <path id="패스_72" data-name="패스 72" class="cls-4" d="M56.2,325.477l-3.375,3.375a10.173,10.173,0,0,0,.867.987,9.946,9.946,0,0,0,7.079,2.932v-4.693A5.321,5.321,0,0,1,56.2,325.477Z" transform="translate(-50.757 -312.771)"/>
      <path id="패스_73" data-name="패스 73" class="cls-5" d="M266.011,199.619a10.1,10.1,0,0,0-.164-1.814l-.088-.481H256v4.693h4.75a5.294,5.294,0,0,1-2.029,2.176l3.372,3.372a10.173,10.173,0,0,0,.987-.867A9.946,9.946,0,0,0,266.011,199.619Z" transform="translate(-246.011 -189.63)"/>
      <path id="패스_74" data-name="패스 74" class="cls-6" d="M202.107,6.251l.415.415,3.318-3.318-.415-.415A9.946,9.946,0,0,0,198.346,0L196,2.346l2.346,2.346A5.284,5.284,0,0,1,202.107,6.251Z" transform="translate(-188.358)"/>
      <path id="패스_75" data-name="패스 75" class="cls-7" d="M60.768,4.693V0a9.946,9.946,0,0,0-7.079,2.932,10.161,10.161,0,0,0-.867.987L56.2,7.294a5.321,5.321,0,0,1,4.57-2.6Z" transform="translate(-50.756 0)"/>
    </g>
  </g>
</svg>
