<svg xmlns="http://www.w3.org/2000/svg" width="35" height="35" viewBox="0 0 35 35">
    <g id="prefix__그룹_123" data-name="그룹 123" transform="translate(-170 -757)">
        <path id="prefix__사각형_131" d="M0 0H35V35H0z" data-name="사각형 131" transform="translate(170 757)" style="fill:none"/>
        <g id="prefix__shop_1_" data-name="shop (1)" transform="translate(173 759)">
            <g id="prefix__그룹_122" data-name="그룹 122">
                <path id="prefix__패스_69" d="M29.945 7.161L27.8.733A1.071 1.071 0 0 0 26.786 0H3.214A1.071 1.071 0 0 0 2.2.733L.055 7.161a1.092 1.092 0 0 0-.055.31v1.1a5.335 5.335 0 0 0 2.143 4.262v13.953A3.214 3.214 0 0 0 5.357 30h19.286a3.214 3.214 0 0 0 3.214-3.214V12.834A5.335 5.335 0 0 0 30 8.571v-1.1a1.089 1.089 0 0 0-.055-.31zM22.5 2.143h3.513l1.429 4.286H22.5zm-6.429 0h4.286v4.286h-4.286zm-6.429 0h4.286v4.286H9.643zm-5.656 0H7.5v4.286H2.557zm13.157 25.714h-4.286v-8.571h4.286v8.571zm8.571-1.071a1.071 1.071 0 0 1-1.071 1.071h-5.357v-9.643a1.071 1.071 0 0 0-1.071-1.071h-6.429a1.071 1.071 0 0 0-1.071 1.071v9.643H5.357a1.071 1.071 0 0 1-1.071-1.071V13.821a5.3 5.3 0 0 0 4.286-.984 5.43 5.43 0 0 0 6.429 0 5.43 5.43 0 0 0 6.429 0 5.3 5.3 0 0 0 4.286.984v12.965zm-1.071-15a3.166 3.166 0 0 1-2.408-1.112 1.071 1.071 0 0 0-1.614 0 3.233 3.233 0 0 1-4.815 0 1.108 1.108 0 0 0-1.566-.048l-.048.048a3.233 3.233 0 0 1-4.815 0 1.108 1.108 0 0 0-1.566-.048l-.048.048a3.166 3.166 0 0 1-2.408 1.112 3.214 3.214 0 0 1-3.212-3.215h25.714a3.214 3.214 0 0 1-3.214 3.215z" data-name="패스 69" style="fill:#95989a"/>
            </g>
        </g>
    </g>
</svg>
