<svg xmlns="http://www.w3.org/2000/svg" width="35" height="35" viewBox="0 0 35 35">
    <g id="prefix__그룹_121" data-name="그룹 121" transform="translate(-110 -641)">
        <path id="prefix__사각형_129" d="M0 0H35V35H0z" data-name="사각형 129" transform="translate(110 641)" style="fill:none"/>
        <g id="prefix__sydney-opera-house" transform="translate(112 631.325)">
            <g id="prefix__그룹_117" data-name="그룹 117" transform="translate(0 12.676)">
                <path id="prefix__패스_65" d="M31.033 26l-2.666-2.43v-8.052a.928.928 0 0 0-.928-.928H21.02a.928.928 0 0 0-.928.928v.516l-3.22-2.934a1.611 1.611 0 0 0-2.18 0L.53 26a1.618 1.618 0 0 0 1.09 2.815h2.262v12.932a.928.928 0 0 0 .928.928h7.762a.928.928 0 0 0 .928-.928V33.9h4.562v7.85a.928.928 0 0 0 .928.928h7.762a.928.928 0 0 0 .928-.928V28.819h2.262A1.619 1.619 0 0 0 31.033 26zm-4.28.959a.928.928 0 0 0-.928.928v12.932h-5.906v-7.85a.928.928 0 0 0-.928-.928h-6.419a.928.928 0 0 0-.928.928v7.85H5.738V27.891a.928.928 0 0 0-.928-.928H2.235l13.547-12.345 4.613 4.2a.928.928 0 0 0 1.553-.686v-1.69h4.562v7.538a.928.928 0 0 0 .3.686l2.515 2.292z" data-name="패스 65" transform="translate(0 -12.676)" style="fill:#95989a"/>
            </g>
        </g>
    </g>
</svg>
