<svg xmlns="http://www.w3.org/2000/svg" width="35" height="35" viewBox="0 0 35 35">
    <g id="prefix__그룹_120" data-name="그룹 120" transform="translate(-160 -641)">
        <path id="prefix__politics" d="M2.5 17.187v10.937H.937a.937.937 0 0 0 0 1.876h20.624a.937.937 0 0 0 0-1.875h-1.537v-8.18l1.431-1.45a1.051 1.051 0 0 0 .119-.149l3.807-5.874a2.164 2.164 0 0 0 1.01.261h.009a2.172 2.172 0 0 0 1.546-.641l1.415-1.415a2.189 2.189 0 0 0 0-3.094L22.415.641a2.189 2.189 0 0 0-3.094 0l-1.374 1.375a2.182 2.182 0 0 0-.541 2.162l-5.562 1.413A8.066 8.066 0 0 0 6.61 9.8a8.157 8.157 0 0 0-.847 3.591 7.87 7.87 0 0 0 .555 2.862H3.437a.938.938 0 0 0-.937.934zM19.271 3.342l1.375-1.376a.306.306 0 0 1 .22-.091.311.311 0 0 1 .221.091l6.945 6.943a.312.312 0 0 1 0 .442l-1.415 1.414a.31.31 0 0 1-.221.092.312.312 0 0 1-.221-.092l-6.9-6.983a.312.312 0 0 1 0-.44zM7.637 13.387a6.266 6.266 0 0 1 .651-2.756 6.185 6.185 0 0 1 4.017-3.222L18.629 5.8l5.341 5.4-3.919 6.044-5.413 5.489a1.269 1.269 0 0 1-.912.376 1.25 1.25 0 0 1-1.081-.615 1.366 1.366 0 0 1 .282-1.622l4.786-4.8a.938.938 0 0 0 .114-1.189l-.2-.3a4.183 4.183 0 0 0-7.023.367l-.744 1.292H8.375a5.992 5.992 0 0 1-.737-2.862zm7.252 2.862h-2.871l.206-.359a2.319 2.319 0 0 1 3.576-.555zM4.375 18.124h8.645l-1.42 1.425a3.221 3.221 0 0 0-.566 3.9 3.113 3.113 0 0 0 2.694 1.534 3.151 3.151 0 0 0 2.242-.929l2.181-2.211v6.276H4.375z" transform="translate(163 643.999)" style="fill:#95989a"/>
        <path id="prefix__사각형_128" d="M0 0H35V35H0z" data-name="사각형 128" transform="translate(160 641)" style="fill:none"/>
    </g>
</svg>
