<svg xmlns="http://www.w3.org/2000/svg" width="35" height="35" viewBox="0 0 35 35">
    <defs>
        <style>
            .prefix__cls-2{fill:#95989a}
        </style>
    </defs>
    <g id="prefix__그룹_212" data-name="그룹 212" transform="translate(-42 -565)">
        <path id="prefix__사각형_144" d="M0 0H35V35H0z" data-name="사각형 144" transform="translate(42 565)" style="fill:none"/>
        <g id="prefix__pizza" transform="translate(44.958 568)">
            <g id="prefix__그룹_159" data-name="그룹 159" transform="translate(.042)">
                <g id="prefix__그룹_158" data-name="그룹 158">
                    <path id="prefix__패스_90" d="M28.039 7.536c-.005-.011-.005-.023-.012-.034s-.017-.017-.024-.027a14.983 14.983 0 0 0-25.929 0c-.007.01-.017.016-.024.027s-.006.023-.012.034a14.943 14.943 0 0 0 0 14.929c.005.011.005.023.012.034a.472.472 0 0 0 .032.042A14.983 14.983 0 0 0 28 22.54a.489.489 0 0 0 .032-.042c.006-.011.006-.023.012-.034a14.943 14.943 0 0 0-.005-14.928zm-25.36.905l.867.5a12.96 12.96 0 0 0 0 12.118l-.867.5a13.961 13.961 0 0 1 0-13.118zm1.733 1L14.04 15l-9.628 5.559a11.958 11.958 0 0 1 0-11.118zM14.54 28.985a14 14 0 0 1-11.359-6.561l.866-.5a13 13 0 0 0 10.493 6.061v1zm0-2a12 12 0 0 1-9.626-5.562l9.626-5.558zm0-12.851L4.914 8.576a12 12 0 0 1 9.626-5.561zm0-12.119A13 13 0 0 0 4.048 8.076l-.866-.5A14 14 0 0 1 14.54 1.015zm1-1A14 14 0 0 1 26.9 7.576l-.866.5A13 13 0 0 0 15.54 2.015zm10.127 19.544L16.04 15l9.628-5.559a11.958 11.958 0 0 1-.001 11.118zM15.54 3.015a12 12 0 0 1 9.626 5.562l-9.626 5.557zm0 12.851l9.626 5.558a12 12 0 0 1-9.626 5.562zm0 13.119v-1a13 13 0 0 0 10.492-6.061l.866.5a14 14 0 0 1-11.358 6.561zm11.86-7.426l-.867-.5a12.96 12.96 0 0 0 0-12.118l.867-.5a13.961 13.961 0 0 1 0 13.118z" class="prefix__cls-2" data-name="패스 90" transform="translate(-.042)"/>
                </g>
            </g>
            <g id="prefix__그룹_161" data-name="그룹 161" transform="translate(12.038 4.503)">
                <g id="prefix__그룹_160" data-name="그룹 160">
                    <path id="prefix__패스_91" d="M205.665 76.955a.5.5 0 0 0-.71.71.519.519 0 0 0 .165.105.5.5 0 0 0 .545-.815z" class="prefix__cls-2" data-name="패스 91" transform="translate(-204.808 -76.807)"/>
                </g>
            </g>
            <g id="prefix__그룹_163" data-name="그룹 163" transform="translate(7.038 7.503)">
                <g id="prefix__그룹_162" data-name="그룹 162">
                    <path id="prefix__패스_92" d="M120.318 128.225a.509.509 0 0 0-.545-.105.515.515 0 0 0-.165.105.5.5 0 1 0 .71 0z" class="prefix__cls-2" data-name="패스 92" transform="translate(-119.46 -128.082)"/>
                </g>
            </g>
            <g id="prefix__그룹_165" data-name="그룹 165" transform="translate(5.042 11.504)">
                <g id="prefix__그룹_164" data-name="그룹 164">
                    <path id="prefix__패스_93" d="M86.184 196.511a.516.516 0 0 0-.71 0 .5.5 0 0 0 .355.856.628.628 0 0 0 .095-.01.309.309 0 0 0 .1-.03.379.379 0 0 0 .09-.045l.075-.06a.507.507 0 0 0-.005-.711z" class="prefix__cls-2" data-name="패스 93" transform="translate(-85.326 -196.37)"/>
                </g>
            </g>
            <g id="prefix__그룹_167" data-name="그룹 167" transform="translate(9.04 14.502)">
                <g id="prefix__그룹_166" data-name="그룹 166">
                    <path id="prefix__패스_94" d="M154.5 247.69a.581.581 0 0 0-.165-.105.5.5 0 0 0-.545.816l.075.06a.382.382 0 0 0 .09.045.325.325 0 0 0 .09.03.7.7 0 0 0 .1.01.5.5 0 0 0 .355-.856z" class="prefix__cls-2" data-name="패스 94" transform="translate(-153.64 -247.547)"/>
                </g>
            </g>
            <g id="prefix__그룹_169" data-name="그룹 169" transform="translate(19.539 13.997)">
                <g id="prefix__그룹_168" data-name="그룹 168">
                    <path id="prefix__패스_95" d="M333.832 239.331a.311.311 0 0 0-.03-.09.286.286 0 0 0-.045-.085c-.02-.03-.04-.055-.06-.08a.5.5 0 0 0-.815.545.48.48 0 0 0 .46.31.527.527 0 0 0 .355-.145.518.518 0 0 0 .105-.165.5.5 0 0 0 .04-.19.7.7 0 0 0-.01-.1z" class="prefix__cls-2" data-name="패스 95" transform="translate(-332.842 -238.928)"/>
                </g>
            </g>
            <g id="prefix__그룹_171" data-name="그룹 171" transform="translate(17.539 18.005)">
                <g id="prefix__그룹_170" data-name="그룹 170">
                    <path id="prefix__패스_96" d="M299.7 307.741a.31.31 0 0 0-.03-.09.285.285 0 0 0-.045-.085c-.02-.03-.04-.055-.06-.08a.524.524 0 0 0-.71 0c-.02.025-.04.05-.06.08a.277.277 0 0 0-.045.085.33.33 0 0 0-.03.09.693.693 0 0 0-.01.1.525.525 0 0 0 .145.355l.075.06a.385.385 0 0 0 .09.045.326.326 0 0 0 .09.03.7.7 0 0 0 .1.01.5.5 0 0 0 .5-.491v-.01a.607.607 0 0 0-.01-.099z" class="prefix__cls-2" data-name="패스 96" transform="translate(-298.707 -307.347)"/>
                </g>
            </g>
            <g id="prefix__그룹_173" data-name="그룹 173" transform="translate(21.538 20.999)">
                <g id="prefix__그룹_172" data-name="그룹 172">
                    <path id="prefix__패스_97" d="M367.827 358.6l-.075-.06a.38.38 0 0 0-.09-.045.322.322 0 0 0-.09-.03.519.519 0 0 0-.455.135.776.776 0 0 0-.06.075.373.373 0 0 0-.045.09.329.329 0 0 0-.03.09.689.689 0 0 0-.01.1.417.417 0 0 0 .04.19.578.578 0 0 0 .105.165.527.527 0 0 0 .355.145.7.7 0 0 0 .1-.01.331.331 0 0 0 .09-.03.379.379 0 0 0 .09-.045.771.771 0 0 0 .075-.06.578.578 0 0 0 .105-.165.5.5 0 0 0 .04-.19.526.526 0 0 0-.145-.355z" class="prefix__cls-2" data-name="패스 97" transform="translate(-366.971 -358.457)"/>
                </g>
            </g>
            <g id="prefix__그룹_175" data-name="그룹 175" transform="translate(12.54 17.993)">
                <g id="prefix__그룹_174" data-name="그룹 174">
                    <path id="prefix__패스_98" d="M214.23 307.292a.493.493 0 0 0-.815.165.5.5 0 0 0-.04.19.686.686 0 0 0 .01.1.325.325 0 0 0 .03.09.271.271 0 0 0 .045.085c.02.03.04.055.06.08a.519.519 0 0 0 .165.105.42.42 0 0 0 .19.04.527.527 0 0 0 .355-.145c.02-.025.04-.05.06-.08a.282.282 0 0 0 .045-.085.31.31 0 0 0 .03-.09.635.635 0 0 0 .01-.1.527.527 0 0 0-.145-.355z" class="prefix__cls-2" data-name="패스 98" transform="translate(-213.374 -307.141)"/>
                </g>
            </g>
            <g id="prefix__그룹_177" data-name="그룹 177" transform="translate(7.541 21.501)">
                <g id="prefix__그룹_176" data-name="그룹 176">
                    <path id="prefix__패스_99" d="M128.9 367.16a.522.522 0 0 0-.165-.105.5.5 0 0 0-.38 0 .38.38 0 0 0-.09.045l-.075.06a.515.515 0 0 0-.145.355.5.5 0 0 0 .04.19.517.517 0 0 0 .105.165.753.753 0 0 0 .075.06.384.384 0 0 0 .09.045.471.471 0 0 0 .38 0 .586.586 0 0 0 .165-.105.507.507 0 0 0 0-.71z" class="prefix__cls-2" data-name="패스 99" transform="translate(-128.041 -367.017)"/>
                </g>
            </g>
            <g id="prefix__그룹_179" data-name="그룹 179" transform="translate(16.539 11.007)">
                <g id="prefix__그룹_178" data-name="그룹 178">
                    <path id="prefix__패스_100" d="M282.6 188.185a.576.576 0 0 0-.105-.165.524.524 0 0 0-.71 0 .577.577 0 0 0-.105.165.5.5 0 1 0 .92 0z" class="prefix__cls-2" data-name="패스 100" transform="translate(-281.642 -187.882)"/>
                </g>
            </g>
            <g id="prefix__그룹_181" data-name="그룹 181" transform="translate(16.539 5.008)">
                <g id="prefix__그룹_180" data-name="그룹 180">
                    <path id="prefix__패스_101" d="M282.6 85.785a.577.577 0 0 0-.105-.165.524.524 0 0 0-.71 0 .577.577 0 0 0-.105.165.471.471 0 0 0 0 .38.579.579 0 0 0 .105.165.507.507 0 0 0 .71 0 .578.578 0 0 0 .105-.165.471.471 0 0 0 0-.38z" class="prefix__cls-2" data-name="패스 101" transform="translate(-281.642 -85.481)"/>
                </g>
            </g>
            <g id="prefix__그룹_183" data-name="그룹 183" transform="translate(9.54 7)">
                <g id="prefix__그룹_182" data-name="그룹 182">
                    <path id="prefix__패스_102" d="M164.177 119.509a2 2 0 1 0 2 2 2 2 0 0 0-2-2zm0 3a1 1 0 1 1 1-1 1 1 0 0 1-1 1.002z" class="prefix__cls-2" data-name="패스 102" transform="translate(-162.176 -119.509)"/>
                </g>
            </g>
            <g id="prefix__그룹_185" data-name="그룹 185" transform="translate(4.045 14.498)">
                <g id="prefix__그룹_184" data-name="그룹 184">
                    <path id="prefix__패스_103" d="M70.31 247.509a2 2 0 1 0 2 2 2 2 0 0 0-2-2zm0 3a1 1 0 1 1 1-1 1 1 0 0 1-1 1.002z" class="prefix__cls-2" data-name="패스 103" transform="translate(-68.309 -247.509)"/>
                </g>
            </g>
            <g id="prefix__그룹_187" data-name="그룹 187" transform="translate(16.538 21.496)">
                <g id="prefix__그룹_186" data-name="그룹 186">
                    <path id="prefix__패스_104" d="M283.643 366.976a2 2 0 1 0 2 2 2 2 0 0 0-2-2zm0 3a1 1 0 1 1 1-1 1 1 0 0 1-1 1.002z" class="prefix__cls-2" data-name="패스 104" transform="translate(-281.642 -366.976)"/>
                </g>
            </g>
            <g id="prefix__그룹_189" data-name="그룹 189" transform="translate(21.532 12.999)">
                <g id="prefix__그룹_188" data-name="그룹 188">
                    <path id="prefix__패스_105" d="M368.977 221.909a2 2 0 1 0 2 2 2 2 0 0 0-2-2zm0 3a1 1 0 1 1 1-1 1 1 0 0 1-1 1.002z" class="prefix__cls-2" data-name="패스 105" transform="translate(-366.976 -221.909)"/>
                </g>
            </g>
            <g id="prefix__그룹_191" data-name="그룹 191" transform="translate(9.54 20.997)">
                <g id="prefix__그룹_190" data-name="그룹 190">
                    <path id="prefix__패스_106" d="M164.177 358.442a2 2 0 1 0 2 2 2 2 0 0 0-2-2zm0 3a1 1 0 1 1 1-1 1 1 0 0 1-1 1.002z" class="prefix__cls-2" data-name="패스 106" transform="translate(-162.176 -358.442)"/>
                </g>
            </g>
            <g id="prefix__그룹_193" data-name="그룹 193" transform="translate(18.537 5.501)">
                <g id="prefix__그룹_192" data-name="그룹 192">
                    <path id="prefix__패스_107" d="M317.777 93.909a2 2 0 1 0 2 2 2 2 0 0 0-2-2zm0 3a1 1 0 1 1 1-1 1 1 0 0 1-1 1.002z" class="prefix__cls-2" data-name="패스 107" transform="translate(-315.776 -93.909)"/>
                </g>
            </g>
        </g>
    </g>
</svg>
