<svg xmlns="http://www.w3.org/2000/svg" width="35" height="35" viewBox="0 0 35 35">
    <defs>
        <style>
            .prefix__cls-1{fill:#95989a}
        </style>
    </defs>
    <g id="prefix__그룹_209" data-name="그룹 209" transform="translate(-42 -181)">
        <g id="prefix__rice" transform="translate(45 184)">
            <g id="prefix__그룹_150" data-name="그룹 150">
                <g id="prefix__그룹_149" data-name="그룹 149">
                    <path id="prefix__패스_88" d="M29.121 12.3h-.969a4.4 4.4 0 0 0-1.267-2.29 4.379 4.379 0 0 0-3.169-5.489 4.379 4.379 0 0 0-5.489-3.169A4.391 4.391 0 0 0 15.059 0a4.711 4.711 0 0 0-3.279 1.359 4.379 4.379 0 0 0-5.5 3.167 4.379 4.379 0 0 0-3.169 5.489A4.4 4.4 0 0 0 1.847 12.3H.879a.879.879 0 0 0-.879.884 14.965 14.965 0 0 0 7.031 12.671v1.508A2.64 2.64 0 0 0 9.668 30h10.664a2.64 2.64 0 0 0 2.637-2.637v-1.508A14.965 14.965 0 0 0 30 13.184a.879.879 0 0 0-.879-.884zM4.658 11.017a.879.879 0 0 0 .294-1.1 2.626 2.626 0 0 1 2.167-3.752.879.879 0 0 0 .8-.8 2.626 2.626 0 0 1 3.753-2.167.879.879 0 0 0 1.1-.294 2.87 2.87 0 0 1 2.284-1.142A2.639 2.639 0 0 1 17.225 2.9a.879.879 0 0 0 1.1.294 2.626 2.626 0 0 1 3.753 2.167.879.879 0 0 0 .8.8 2.626 2.626 0 0 1 2.167 3.753.879.879 0 0 0 .294 1.1 2.653 2.653 0 0 1 .989 1.288H3.669a2.653 2.653 0 0 1 .989-1.285zm16.553 16.346a.88.88 0 0 1-.879.879H9.668a.88.88 0 0 1-.879-.879v-1h12.422zm.416-2.754H8.373a13.232 13.232 0 0 1-6.586-10.558h26.426a13.232 13.232 0 0 1-6.586 10.558z" class="prefix__cls-1" data-name="패스 88"/>
                </g>
            </g>
            <g id="prefix__그룹_152" data-name="그룹 152" transform="translate(17.379 6.759)">
                <g id="prefix__그룹_151" data-name="그룹 151">
                    <circle id="prefix__타원_11" cx="1" cy="1" r="1" class="prefix__cls-1" data-name="타원 11"/>
                </g>
            </g>
            <g id="prefix__그룹_154" data-name="그룹 154" transform="translate(21.581 8.883)">
                <g id="prefix__그룹_153" data-name="그룹 153">
                    <ellipse id="prefix__타원_12" cx=".5" cy="1" class="prefix__cls-1" data-name="타원 12" rx=".5" ry="1"/>
                </g>
            </g>
            <g id="prefix__그룹_156" data-name="그룹 156" transform="translate(6.759 6.759)">
                <g id="prefix__그룹_155" data-name="그룹 155">
                    <circle id="prefix__타원_13" cx="1" cy="1" r="1" class="prefix__cls-1" data-name="타원 13"/>
                </g>
            </g>
        </g>
        <path id="prefix__사각형_140" d="M0 0H35V35H0z" data-name="사각형 140" transform="translate(42 181)" style="fill:none"/>
    </g>
</svg>
