<svg xmlns="http://www.w3.org/2000/svg" width="35" height="35" viewBox="0 0 35 35">
    <defs>
        <style>
            .prefix__cls-2{fill:#95989a}
        </style>
    </defs>
    <g id="prefix__그룹_213" data-name="그룹 213" transform="translate(-212 -565)">
        <path id="prefix__사각형_143" d="M0 0H35V35H0z" data-name="사각형 143" transform="translate(212 565)" style="fill:none"/>
        <g id="prefix__그룹_195" data-name="그룹 195" transform="translate(167 -170)">
            <g id="prefix__dish" transform="translate(52.193 741.528)">
                <path id="prefix__패스_108" d="M266.485 180a.485.485 0 1 0 .484.485.485.485 0 0 0-.484-.485zm0 0" class="prefix__cls-2" data-name="패스 108" transform="translate(-252.571 -166.858)"/>
                <path id="prefix__패스_109" d="M24.3 94.328a11.421 11.421 0 0 0-9.723-11.133 2.058 2.058 0 0 0 .348-1.148 2.016 2.016 0 1 0-4.032 0 2.058 2.058 0 0 0 .348 1.148 11.423 11.423 0 0 0-9.729 11.133 1.535 1.535 0 0 0 0 3.07H24.3a1.535 1.535 0 0 0 0-3.07zM11.9 82.047a1.008 1.008 0 1 1 1 1.023 1.017 1.017 0 0 1-1-1.023zm1 2.047a10.413 10.413 0 0 1 10.387 10.234H2.52A10.448 10.448 0 0 1 12.9 84.094zm11.4 12.28H1.512a.512.512 0 0 1 0-1.023H24.3a.512.512 0 0 1 0 1.023zm0 0" class="prefix__cls-2" data-name="패스 109" transform="translate(0 -72.205)"/>
                <path id="prefix__패스_110" d="M310.5 195.041a9.242 9.242 0 0 0-5.23-4.595.485.485 0 0 0-.335.909 8.373 8.373 0 0 1 4.682 4.086.485.485 0 0 0 .882-.4zm0 0" class="prefix__cls-2" data-name="패스 110" transform="translate(-289.077 -176.63)"/>
                <path id="prefix__패스_111" d="M416.577 79.989l-1.148-.574-.574-1.148a.485.485 0 0 0-.867 0l-.574 1.148-1.148.574a.485.485 0 0 0 0 .867l1.148.574.574 1.148a.485.485 0 0 0 .867 0l.574-1.148 1.148-.574a.485.485 0 0 0 0-.867zm-1.726.646a.484.484 0 0 0-.217.217l-.212.425-.213-.425a.482.482 0 0 0-.217-.217l-.425-.213.425-.213a.482.482 0 0 0 .217-.217l.213-.425.213.425a.482.482 0 0 0 .217.217l.425.213zm0 0" class="prefix__cls-2" data-name="패스 111" transform="translate(-391.038 -69.936)"/>
                <path id="prefix__패스_112" d="M2.282 4.5l.65 1.95a.485.485 0 0 0 .919 0L4.5 4.5l1.95-.65a.485.485 0 0 0 0-.919L4.5 2.282 3.851.331a.485.485 0 0 0-.919 0l-.65 1.95-1.95.65a.485.485 0 0 0 0 .919zm.536-1.377a.485.485 0 0 0 .307-.307l.267-.8.267.8a.485.485 0 0 0 .307.307l.8.267-.8.267a.485.485 0 0 0-.307.307l-.267.8-.267-.8a.485.485 0 0 0-.307-.307l-.8-.267zm0 0" class="prefix__cls-2" data-name="패스 112" transform="translate(14.064)"/>
            </g>
            <g id="prefix__moon_1_" data-name="moon (1)" transform="translate(48 739)">
                <g id="prefix__그룹_194" data-name="그룹 194">
                    <path id="prefix__패스_113" d="M13.009 8.1a.468.468 0 0 0-.392.085 5 5 0 0 1-1.515.885 4.746 4.746 0 0 1-1.72.307 5 5 0 0 1-5.006-5.003 5.248 5.248 0 0 1 .272-1.652 4.572 4.572 0 0 1 .817-1.464A.435.435 0 0 0 5.4.645a.468.468 0 0 0-.394-.086A6.871 6.871 0 0 0 1.4 2.977a6.741 6.741 0 1 0 11.9 5.67.4.4 0 0 0-.291-.547zM10.4 11.662A5.861 5.861 0 0 1 .92 7.064a5.758 5.758 0 0 1 1.208-3.559 5.854 5.854 0 0 1 1.959-1.634 5.882 5.882 0 0 0-.238.579 5.666 5.666 0 0 0-.324 1.941A5.872 5.872 0 0 0 9.4 10.265a5.7 5.7 0 0 0 2.026-.358c.221-.085.443-.17.647-.272a6.2 6.2 0 0 1-1.673 2.027z" class="prefix__cls-2" data-name="패스 113" transform="translate(0 -.546)"/>
                </g>
            </g>
        </g>
    </g>
</svg>
