<svg xmlns="http://www.w3.org/2000/svg" width="35" height="35" viewBox="0 0 35 35">
    <g id="prefix__그룹_210" data-name="그룹 210" transform="translate(-42 -373)">
        <path id="prefix__사각형_141" d="M0 0H35V35H0z" data-name="사각형 141" transform="translate(42 373)" style="fill:none"/>
        <path id="prefix__Shape" d="M20 1h-2.092A1.5 1.5 0 0 0 16.5 0h-3a1.5 1.5 0 0 0-1.408 1 23.065 23.065 0 0 0-3.734.136 10.108 10.108 0 0 0-4.544 2.023l-.014.005c-.013.007-.02.02-.032.029A10.014 10.014 0 0 0 0 11v.5a3 3 0 0 0 2.5 2.955V15.5A4.505 4.505 0 0 0 7 20h5.092a1.5 1.5 0 0 0 1.408 1h3a1.5 1.5 0 0 0 1.408-1H23a4.505 4.505 0 0 0 4.5-4.5v-1.545A3 3 0 0 0 30 11 10 10 0 0 0 20 1zm-8 18H7a3.5 3.5 0 0 1-3.5-3.5v-2.207c.086-1.1.665-2.974 3.555-3.3a21.09 21.09 0 0 1 4.945.122zm0-9.893A21.731 21.731 0 0 0 6.945 9c-2.857.318-4.364 2.063-4.456 4.431A2 2 0 0 1 1 11.5a9.182 9.182 0 0 1 .777-4.142A3.368 3.368 0 0 1 2.2 8.839a.5.5 0 0 0 1 .089 4.533 4.533 0 0 0-.862-2.613 9.05 9.05 0 0 1 1.6-1.941 4.726 4.726 0 0 1 .721 3.309.5.5 0 0 0 .944.328c.025-.071.563-1.687-.879-4.282a8.946 8.946 0 0 1 3.3-1.5c.517 3.77-.15 5-.15 5a.5.5 0 1 0 .845.535c.094-.15.868-1.537.289-5.709A25.984 25.984 0 0 1 12 2zM17 19.5a.5.5 0 0 1-.5.5h-1v-5a.5.5 0 0 0-1 0v5h-1a.5.5 0 0 1-.5-.5v-18a.5.5 0 0 1 .5-.5h1v12a.5.5 0 0 0 1 0V1h1a.5.5 0 0 1 .5.5zm9.5-4A3.5 3.5 0 0 1 23 19h-5v-8.089c3.528.289 6.858-.361 7.956.722.69.68.544 1.917.544 3.867zm.978-2.558c-.336-4.069-4.558-2.62-9.478-3.035V2a13.138 13.138 0 0 1 4.944.5c-.246 4.384-1.27 5.614-1.305 5.65a.5.5 0 0 0 .715.7c.134-.134 1.263-1.4 1.569-5.947a8.862 8.862 0 0 1 2.955 2.3c-.309 2.65-1.129 3.356-1.167 3.386a.5.5 0 0 0 .567.824c.111-.075.972-.723 1.431-3.045A8.92 8.92 0 0 1 29 11a2 2 0 0 1-1.522 1.942z" transform="translate(45 380)" style="fill:#95989a"/>
    </g>
</svg>
