<svg xmlns="http://www.w3.org/2000/svg" width="35" height="35" viewBox="0 0 35 35">
    <defs>
        <style>
            .prefix__cls-1{fill:#95989a}
        </style>
    </defs>
    <g id="prefix__그룹_208" data-name="그룹 208" transform="translate(-45 -496)">
        <g id="prefix__pasta" transform="translate(47.411 498.595)">
            <g id="prefix__그룹_137" data-name="그룹 137" transform="translate(.001 .405)">
                <g id="prefix__그룹_136" data-name="그룹 136">
                    <path id="prefix__패스_86" d="M29.119 17.858h-.165a7.2 7.2 0 0 0-6.829-6.482l7.261-5.311a1.5 1.5 0 1 0-1.77-2.416l-10.524 7.695a.476.476 0 0 0-.047.031l-.81.592 7.552-9.1a1.5 1.5 0 1 0-2.3-1.916L14.6 9.243a9.862 9.862 0 0 0-4.1-.885 10 10 0 0 0-9.979 9.587.873.873 0 0 0-.449.445.881.881 0 0 0 .1.867l.161.394A18.154 18.154 0 0 0 7.5 28.138v.776a1.446 1.446 0 0 0 1.444 1.444h12.113a1.445 1.445 0 0 0 1.443-1.444v-.776a18.148 18.148 0 0 0 7.169-8.486l.163-.4a.881.881 0 0 0-.713-1.4zm-1.167 0h-1a5.226 5.226 0 0 0-7.5-3.955c-.068-.137-.142-.275-.217-.41l1.413-1.033a6.436 6.436 0 0 1 1.107-.1 6.22 6.22 0 0 1 6.197 5.498zm-6.2-2.5a3.21 3.21 0 0 0-1.6.424 9.7 9.7 0 0 0-.311-.958 4.2 4.2 0 0 1 1.909-.466 4.246 4.246 0 0 1 4.182 3.5h-1.026a3.27 3.27 0 0 0-3.155-2.5zm2.108 2.5h-3.385a10 10 0 0 0-.1-1.013 2.2 2.2 0 0 1 1.376-.487 2.259 2.259 0 0 1 2.108 1.5zm-4.372 0h-1a8.031 8.031 0 0 0-.88-3.175l.815-.6c.124.231.241.464.344.706a8.8 8.8 0 0 1 .72 3.069zm-1.893-5.646a.545.545 0 0 0 .047-.031l10.567-7.726a.484.484 0 0 1 .365-.091.493.493 0 0 1 .326.2.508.508 0 0 1 .1.3.5.5 0 0 1-.206.4l-12.15 8.887-1.147.909a6.015 6.015 0 0 0-.654-.832zm-.111 5.646h-1.011a5.971 5.971 0 0 0-.486-1.915l.8-.636a7.029 7.029 0 0 1 .696 2.551zm-6.983-1.5a1.99 1.99 0 0 0-1.929 1.5H7.541a3 3 0 0 1 5.917 0h-1.029a1.99 1.99 0 0 0-1.929-1.5zm.866 1.5H9.634a1 1 0 0 1 1.731 0zm-3.979-3.427a4.968 4.968 0 0 1 3.763-1.031l-.8.961a4 4 0 0 0-3.819 3.493H5.525a4.968 4.968 0 0 1 1.863-3.423zm-2.862 3.427H3.518a7.006 7.006 0 0 1 9.068-6.184l-.7.847a5.989 5.989 0 0 0-7.358 5.337zm8.774-2.352l.638-.769a4.99 4.99 0 0 1 1.539 3.121h-1.012a3.989 3.989 0 0 0-1.165-2.352zm8.957-13.92a.5.5 0 0 1 .764.638L12.5 14.9a3.972 3.972 0 0 0-.961-.4zM10.5 9.358a8.878 8.878 0 0 1 3.439.685l-.677.816a7.971 7.971 0 0 0-10.737 7H1.514A9.012 9.012 0 0 1 10.5 9.358zm18.243 9.916a17.145 17.145 0 0 1-6.893 8.084H20.5a.5.5 0 0 0 0 1h1v.556a.444.444 0 0 1-.443.444H8.944a.444.444 0 0 1-.444-.444v-.556H13a.5.5 0 1 0 0-1H8.149a17.142 17.142 0 0 1-6.894-8.086l-.169-.414h27.828z" class="prefix__cls-1" data-name="패스 86" transform="translate(-.001 -.405)"/>
                    <path id="prefix__패스_87" d="M372.118 338.332a12.4 12.4 0 0 0 4.715-5.244.5.5 0 1 0-.921-.392 11.279 11.279 0 0 1-4.268 4.755l.224.448z" class="prefix__cls-1" data-name="패스 87" transform="translate(-349.878 -312.946)"/>
                </g>
            </g>
        </g>
        <path id="prefix__사각형_138" d="M0 0H35V35H0z" data-name="사각형 138" transform="translate(45 496)" style="fill:none"/>
    </g>
</svg>
